{"title":"True.Detective.S02E02.1080i.HDTV.MPEG2.DD5.1-CtrlHD[rarbg]","uid":12073379,"size":6303456922,"categoryP":"video","categoryS":"hd___tv_shows","magnet":"?xt=urn:btih:e8580e467ae8e51e7f24221a3095e1ce1de4802c&amp;dn=True.Detective.S02E02.1080i.HDTV.MPEG2.DD5.1-CtrlHD%5Brarbg%5D&amp;tr=udp%3A%2F%2Ftracker.openbittorrent.com%3A80&amp;tr=udp%3A%2F%2Fopen.demonii.com%3A1337&amp;tr=udp%3A%2F%2Ftracker.coppersurfer.tk%3A6969&amp;tr=udp%3A%2F%2Fexodus.desync.com%3A6969","seeders":0,"leechers":1,"uploader":"vickey1992","files":2,"time":1435538797,"description":"Video\nID                                       : 33 (0x21)\nMenu ID                                  : 1 (0x1)\nFormat                                   : MPEG Video\nFormat version                           : Version 2\nFormat profile                           : Main@High\nFormat settings, BVOP                    : Yes\nFormat settings, Matrix                  : Default\nFormat settings, GOP                     : Variable\nCodec ID                                 : 2\nDuration                                 : 1h 0mn\nBit rate mode                            : Variable\nBit rate                                 : 12.9 Mbps\nMaximum bit rate                         : 38.8 Mbps\nWidth                                    : 1 920 pixels\nHeight                                   : 1 080 pixels\nDisplay aspect ratio                     : 16:9\nFrame rate                               : 29.970 fps\nColor space                              : YUV\nChroma subsampling                       : 4:2:0\nBit depth                                : 8 bits\nCompression mode                         : Lossy\nBits/(Pixel*Frame)                       : 0.207\nTime code of first frame                 : 00:00:00;00\nTime code source                         : Group of pictures header\nStream size                              : 5.42 GiB (92%)\n\nAudio\nID                                       : 36 (0x24)\nMenu ID                                  : 1 (0x1)\nFormat                                   : AC-3\nFormat/Info                              : Audio Coding 3\nMode extension                           : CM (complete main)\nFormat settings, Endianness              : Big\nCodec ID                                 : 129\nDuration                                 : 1h 0mn\nBit rate mode                            : Constant\nBit rate                                 : 384 Kbps\nChannel(s)                               : 2 channels\nChannel positions                        : Front: L R\nSampling rate                            : 48.0 KHz\nCompression mode                         : Lossy\nStream size                              : 165 MiB (3%)\nLanguage                                 : English\n\nText #1\nID                                       : 33 (0x21)-CC1\nMenu ID                                  : 1 (0x1)\nFormat                                   : EIA-608\nMuxing mode                              : A/53 / DTVCC Transport\nMuxing mode, more info                   : Muxed in Video #1\nDuration                                 : 1h 0mn\nBit rate mode                            : Constant\nStream size                              : 0.00 Byte (0%)\n\nText #2\nID                                       : 33 (0x21)-CC3\nMenu ID                                  : 1 (0x1)\nFormat                                   : EIA-608\nMuxing mode                              : A/53 / DTVCC Transport\nMuxing mode, more info                   : Muxed in Video #1\nDuration                                 : 1h 0mn\nBit rate mode                            : Constant\nStream size                              : 0.00 Byte (0%)\n\nText #3\nID                                       : 33 (0x21)-1\nMenu ID                                  : 1 (0x1)\nFormat                                   : EIA-708\nMuxing mode                              : A/53 / DTVCC Transport\nMuxing mode, more info                   : Muxed in Video #1\nDuration                                 : 1h 0mn\nBit rate mode                            : Constant\nStream size                              : 0.00 Byte (0%)\n\nText #4\nID                                       : 33 (0x21)-2\nMenu ID                                  : 1 (0x1)\nFormat                                   : EIA-708\nMuxing mode                              : A/53 / DTVCC Transport\nMuxing mode, more info                   : Muxed in Video #1\nDuration                                 : 1h 0mn\nBit rate mode                            : Constant\nStream size                              : 0.00 Byte (0%)","torrent":{"xt":"urn:btih:e8580e467ae8e51e7f24221a3095e1ce1de4802c","amp;dn":"True.Detective.S02E02.1080i.HDTV.MPEG2.DD5.1-CtrlHD%5Brarbg%5D","amp;tr":["udp%3A%2F%2Ftracker.openbittorrent.com%3A80","udp%3A%2F%2Fopen.demonii.com%3A1337","udp%3A%2F%2Ftracker.coppersurfer.tk%3A6969","udp%3A%2F%2Fexodus.desync.com%3A6969"],"infoHash":"e8580e467ae8e51e7f24221a3095e1ce1de4802c","infoHashBuffer":{"type":"Buffer","data":[232,88,14,70,122,232,229,30,127,36,34,26,48,149,225,206,29,228,128,44]},"announce":[],"urlList":[]}}